<svg width="0" height="0" class="hidden">

  <symbol fill="inherit" xmlns="http://www.w3.org/2000/svg" viewBox="0 0 19 16" id="arrow-right">
    <path
      d="M16.2723 8.35375L11.2309 12.8538C11.1258 12.9476 10.9832 13.0003 10.8346 13.0003C10.686 13.0003 10.5434 12.9476 10.4383 12.8538C10.3332 12.7599 10.2741 12.6327 10.2741 12.5C10.2741 12.3673 10.3332 12.2401 10.4383 12.1463L14.5239 8.5H3.55264C3.40408 8.5 3.26161 8.44733 3.15656 8.35356C3.05151 8.25979 2.99249 8.13261 2.99249 8C2.99249 7.8674 3.05151 7.74022 3.15656 7.64645C3.26161 7.55268 3.40408 7.5 3.55264 7.5H14.5239L10.4383 3.85375C10.3332 3.75993 10.2741 3.63269 10.2741 3.5C10.2741 3.36732 10.3332 3.24007 10.4383 3.14625C10.5434 3.05243 10.686 2.99973 10.8346 2.99973C10.9832 2.99973 11.1258 3.05243 11.2309 3.14625L16.2723 7.64625C16.3243 7.69269 16.3657 7.74783 16.3938 7.80853C16.422 7.86923 16.4365 7.9343 16.4365 8C16.4365 8.06571 16.422 8.13077 16.3938 8.19147C16.3657 8.25217 16.3243 8.30732 16.2723 8.35375Z"></path>
  </symbol>
  <symbol fill="inherit" xmlns="http://www.w3.org/2000/svg" viewBox="0 0 64 64" id="slider-arrow">
    <path d="M41.1429 19.8003L53.3333 31.9969L41.1429 44.1904M13.7143 31.9999H53.3333"
      stroke="white" stroke-linecap="round" stroke-linejoin="round"></path>
  </symbol>
  <symbol fill="inherit" xmlns="http://www.w3.org/2000/svg" viewBox="0 0 24 24" id="round-close">
    <path
      d="M18.3 5.71022C18.2075 5.61752 18.0976 5.54397 17.9766 5.49379C17.8557 5.44361 17.726 5.41778 17.595 5.41778C17.464 5.41778 17.3344 5.44361 17.2134 5.49379C17.0924 5.54397 16.9825 5.61752 16.89 5.71022L12 10.5902L7.11001 5.70022C7.01743 5.60764 6.90752 5.5342 6.78655 5.4841C6.66559 5.43399 6.53594 5.4082 6.40501 5.4082C6.27408 5.4082 6.14443 5.43399 6.02347 5.4841C5.9025 5.5342 5.79259 5.60764 5.70001 5.70022C5.60743 5.79281 5.53399 5.90272 5.48388 6.02368C5.43378 6.14464 5.40799 6.27429 5.40799 6.40522C5.40799 6.53615 5.43378 6.6658 5.48388 6.78677C5.53399 6.90773 5.60743 7.01764 5.70001 7.11022L10.59 12.0002L5.70001 16.8902C5.60743 16.9828 5.53399 17.0927 5.48388 17.2137C5.43378 17.3346 5.40799 17.4643 5.40799 17.5952C5.40799 17.7262 5.43378 17.8558 5.48388 17.9768C5.53399 18.0977 5.60743 18.2076 5.70001 18.3002C5.79259 18.3928 5.9025 18.4662 6.02347 18.5163C6.14443 18.5665 6.27408 18.5922 6.40501 18.5922C6.53594 18.5922 6.66559 18.5665 6.78655 18.5163C6.90752 18.4662 7.01743 18.3928 7.11001 18.3002L12 13.4102L16.89 18.3002C16.9826 18.3928 17.0925 18.4662 17.2135 18.5163C17.3344 18.5665 17.4641 18.5922 17.595 18.5922C17.7259 18.5922 17.8556 18.5665 17.9766 18.5163C18.0975 18.4662 18.2074 18.3928 18.3 18.3002C18.3926 18.2076 18.466 18.0977 18.5161 17.9768C18.5662 17.8558 18.592 17.7262 18.592 17.5952C18.592 17.4643 18.5662 17.3346 18.5161 17.2137C18.466 17.0927 18.3926 16.9828 18.3 16.8902L13.41 12.0002L18.3 7.11022C18.68 6.73022 18.68 6.09022 18.3 5.71022Z"
      fill-opacity="0.5"></path>
  </symbol>
  <symbol xmlns="http://www.w3.org/2000/svg" id="cart" viewBox="0 0 24 24">
    <path xmlns="http://www.w3.org/2000/svg"
      d="M20.941,8C20.442,3.507,16.625,0,12,0S3.558,3.507,3.059,8H-.021l1.918,13.425c.21,1.468,1.486,2.575,2.97,2.575h14.266c1.483,0,2.76-1.107,2.97-2.575l1.918-13.425h-3.079ZM12,2c3.519,0,6.432,2.614,6.92,6H5.08c.488-3.386,3.401-6,6.92-6Zm8.122,19.142c-.069,.489-.495,.858-.989,.858H4.867c-.494,0-.92-.369-.989-.858l-1.592-11.142H21.714l-1.592,11.142Zm-7.122-1.142h-2V12h2v8Zm5,0h-2V12h2v8Zm-10,0h-2V12h2v8Z" />
  </symbol>
  <symbol xmlns="http://www.w3.org/2000/svg" viewBox="0 0 24 24" id="heart">
    <g xmlns="http://www.w3.org/2000/svg" id="_01_align_center" data-name="01 align center">
      <path
        d="M17.5.917a6.4,6.4,0,0,0-5.5,3.3A6.4,6.4,0,0,0,6.5.917,6.8,6.8,0,0,0,0,7.967c0,6.775,10.956,14.6,11.422,14.932l.578.409.578-.409C13.044,22.569,24,14.742,24,7.967A6.8,6.8,0,0,0,17.5.917ZM12,20.846c-3.253-2.43-10-8.4-10-12.879a4.8,4.8,0,0,1,4.5-5.05A4.8,4.8,0,0,1,11,7.967h2a4.8,4.8,0,0,1,4.5-5.05A4.8,4.8,0,0,1,22,7.967C22,12.448,15.253,18.416,12,20.846Z" />
    </g>
  </symbol>
  <symbol xmlns="http://www.w3.org/2000/svg" viewBox="0 0 24 24" id="plus">
    <path xmlns="http://www.w3.org/2000/svg"
      d="M23,11H13V1a1,1,0,0,0-1-1h0a1,1,0,0,0-1,1V11H1a1,1,0,0,0-1,1H0a1,1,0,0,0,1,1H11V23a1,1,0,0,0,1,1h0a1,1,0,0,0,1-1V13H23a1,1,0,0,0,1-1h0A1,1,0,0,0,23,11Z" />
  </symbol>
  <symbol xmlns="http://www.w3.org/2000/svg" viewBox="0 0 24 24" id="minus">
    <rect xmlns="http://www.w3.org/2000/svg" y="11" width="24" height="2" rx="1" />
  </symbol>
  <symbol xmlns="http://www.w3.org/2000/svg" viewBox="0 0 24 24" id="rub">
    <path xmlns="http://www.w3.org/2000/svg" style="fill-rule: evenodd"
      d="M5 0h40a27.5 27.5 0 0 1 0 55h-30v6h38v10h-38v29h-10v-29h-5v-10h5v-6h-5v-10h5zM15 10h30a17.5 17.5 0 0 1 0 35h-30z" />
  </symbol>
  <symbol xmlns="http://www.w3.org/2000/svg" viewBox="0 0 24 24" id="arrow">

    <path xmlns="http://www.w3.org/2000/svg"
      d="M7,24a1,1,0,0,1-.71-.29,1,1,0,0,1,0-1.42l8.17-8.17a3,3,0,0,0,0-4.24L6.29,1.71A1,1,0,0,1,7.71.29l8.17,8.17a5,5,0,0,1,0,7.08L7.71,23.71A1,1,0,0,1,7,24Z" />
  </symbol>
</svg>